<?xml version="1.0" standalone="no"?><!DOCTYPE svg PUBLIC "-//W3C//DTD SVG 1.1//EN" "http://www.w3.org/Graphics/SVG/1.1/DTD/svg11.dtd"><svg t="1496824928570" class="icon" style="" viewBox="0 0 1024 1024" version="1.1" xmlns="http://www.w3.org/2000/svg" p-id="3598" xmlns:xlink="http://www.w3.org/1999/xlink" width="32" height="32"><defs><style type="text/css"></style></defs><path d="M539.920485 258.968404c-78.247434-77.619394-204.798061-77.130667-282.417939 1.116768-77.689374 78.317576-77.130667 204.798545 1.117414 282.418586 61.634424 61.146505 152.795475 73.012687 226.855434 37.55297l55.910949 55.492364 94.162909-0.349737 0.348444 94.162909 94.162909-0.348444 0.348444 94.162909 94.162909-0.349737-0.348444-94.162909L579.219717 485.614869C614.189414 411.206465 601.555556 320.114909 539.920485 258.968404zM399.270141 400.736162c-29.107394 29.316848-76.502465 29.59596-105.889455 0.418586-29.386343-29.176727-29.525818-76.572606-0.418586-105.88897 29.107394-29.316848 76.502465-29.59596 105.889455-0.419232C428.238061 324.023919 428.377535 371.419152 399.270141 400.736162z" p-id="3599" fill="#b8b8b8"></path></svg>