<?xml version="1.0" standalone="no"?><!DOCTYPE svg PUBLIC "-//W3C//DTD SVG 1.1//EN" "http://www.w3.org/Graphics/SVG/1.1/DTD/svg11.dtd"><svg t="1496628429981" class="icon" style="" viewBox="0 0 1024 1024" version="1.1" xmlns="http://www.w3.org/2000/svg" p-id="5819" xmlns:xlink="http://www.w3.org/1999/xlink" width="200" height="200"><defs><style type="text/css"></style></defs><path d="M746.038613 345.873067c-24.296107 0-43.997867 19.70176-43.997867 44.004693s19.708587 44.004693 43.997867 44.004693c24.302933 0 44.004693-19.70176 44.004693-44.004693S770.341547 345.873067 746.038613 345.873067zM194.423467 370.373973c0 0 105.280853-118.941013 335.141547-142.25408 229.860693-23.313067 392.861013 139.864747 450.880853 225.027413 38.222507 56.1152-68.4032 91.736747-71.632213 94.242133-22.002347 17.08032 102.97344 32.754347 24.603307 91.81184 0 0-31.156907 28.665173-83.78368 54.265173-79.21664 38.536533-117.050027 47.261013-117.050027 47.261013S621.192533 662.685013 630.838613 489.683627c0 0-21.306027 176.059733 69.113173 256.832853 0 0-210.582187 45.81376-347.5456-15.776427l-72.594773 14.363307 24.111787-41.588053c0 0-103.87456-68.123307-109.50656-81.380693L47.745707 744.502613c0 0 5.34528-66.464427 19.053227-132.410027 1.26976-6.116693 4.696747-21.101227 5.024427-22.48704 0.887467-3.679573 1.80224-7.325013 2.74432-10.93632 10.089813-38.659413 23.422293-72.936107 40.686933-87.934293 0 0-57.869653-68.11648-67.508907-274.261333L194.423467 370.373973z" p-id="5820" fill="#e6e6e6"></path><path d="M576.989867 210.438827c0 0-264.82688-69.91872-398.6432 53.0432l59.47392 49.02912C237.820587 312.511147 373.241173 200.799573 576.989867 210.438827z" p-id="5821" fill="#e6e6e6"></path></svg>